<?xml version="1.0" encoding="utf-8"?><!-- Uploaded to: SVG Repo, www.svgrepo.com, Generator: SVG Repo Mixer Tools -->
<svg width="800px" height="800px" viewBox="0 -0.5 25 25" fill="none" xmlns="http://www.w3.org/2000/svg">
<path d="M11.75 18C11.75 18.4142 12.0858 18.75 12.5 18.75C12.9142 18.75 13.25 18.4142 13.25 18H11.75ZM13.25 15C13.25 14.5858 12.9142 14.25 12.5 14.25C12.0858 14.25 11.75 14.5858 11.75 15H13.25ZM12.5 18.75C12.9142 18.75 13.25 18.4142 13.25 18C13.25 17.5858 12.9142 17.25 12.5 17.25V18.75ZM6.15 16.5L5.40486 16.4147C5.40162 16.443 5.4 16.4715 5.4 16.5H6.15ZM7.74514 9.15523C7.79222 8.7437 7.49677 8.37192 7.08524 8.32484C6.67372 8.27776 6.30194 8.57321 6.25486 8.98474L7.74514 9.15523ZM12.5 17.25C12.0858 17.25 11.75 17.5858 11.75 18C11.75 18.4142 12.0858 18.75 12.5 18.75V17.25ZM18.85 16.5H19.6C19.6 16.4715 19.5984 16.443 19.5951 16.4147L18.85 16.5ZM18.7451 8.98474C18.6981 8.57321 18.3263 8.27776 17.9148 8.32484C17.5032 8.37192 17.2078 8.7437 17.2549 9.15523L18.7451 8.98474ZM6.60593 8.43185C6.2535 8.6495 6.14423 9.11163 6.36187 9.46405C6.57951 9.81648 7.04165 9.92575 7.39407 9.70811L6.60593 8.43185ZM11.662 6.19098L11.337 5.51504C11.3133 5.52643 11.2903 5.53905 11.2679 5.55285L11.662 6.19098ZM13.338 6.19098L13.7324 5.55304C13.7099 5.53916 13.6868 5.52648 13.663 5.51504L13.338 6.19098ZM17.6056 9.71093C17.958 9.92873 18.4201 9.81968 18.6379 9.46735C18.8557 9.11503 18.7467 8.65284 18.3944 8.43504L17.6056 9.71093ZM7.39428 9.71098C7.74664 9.49322 7.85575 9.03106 7.638 8.6787C7.42024 8.32634 6.95807 8.21723 6.60572 8.43498L7.39428 9.71098ZM5.10572 9.36198C4.75336 9.57974 4.64425 10.0419 4.862 10.3943C5.07976 10.7466 5.54193 10.8557 5.89428 10.638L5.10572 9.36198ZM18.3943 8.43498C18.0419 8.21723 17.5798 8.32634 17.362 8.6787C17.1442 9.03106 17.2534 9.49322 17.6057 9.71098L18.3943 8.43498ZM19.1057 10.638C19.4581 10.8557 19.9202 10.7466 20.138 10.3943C20.3558 10.0419 20.2466 9.57974 19.8943 9.36198L19.1057 10.638ZM13.25 18V15H11.75V18H13.25ZM12.5 17.25H8V18.75H12.5V17.25ZM8 17.25C7.54762 17.25 7.27174 17.2032 7.11505 17.1103C7.056 17.0753 7.0146 17.0337 6.98122 16.9671C6.94399 16.8928 6.9 16.7523 6.9 16.5H5.4C5.4 17.3745 5.72359 18.0292 6.3502 18.4007C6.89026 18.7208 7.53938 18.75 8 18.75V17.25ZM6.89514 16.5852L7.74514 9.15523L6.25486 8.98474L5.40486 16.4147L6.89514 16.5852ZM12.5 18.75H17V17.25H12.5V18.75ZM17 18.75C17.4606 18.75 18.1097 18.7208 18.6498 18.4007C19.2764 18.0292 19.6 17.3745 19.6 16.5H18.1C18.1 16.7523 18.056 16.8928 18.0188 16.9671C17.9854 17.0337 17.944 17.0753 17.8849 17.1103C17.7283 17.2032 17.4524 17.25 17 17.25V18.75ZM19.5951 16.4147L18.7451 8.98474L17.2549 9.15523L18.1049 16.5852L19.5951 16.4147ZM7.39407 9.70811L12.0561 6.82911L11.2679 5.55285L6.60593 8.43185L7.39407 9.70811ZM11.987 6.86692C12.3112 6.71103 12.6888 6.71103 13.013 6.86692L13.663 5.51504C12.9279 5.16165 12.0721 5.16165 11.337 5.51504L11.987 6.86692ZM12.9436 6.82893L17.6056 9.71093L18.3944 8.43504L13.7324 5.55304L12.9436 6.82893ZM6.60572 8.43498L5.10572 9.36198L5.89428 10.638L7.39428 9.71098L6.60572 8.43498ZM17.6057 9.71098L19.1057 10.638L19.8943 9.36198L18.3943 8.43498L17.6057 9.71098ZM11.75 11.044C11.75 10.6298 12.0858 10.294 12.5 10.294V8.79398C11.2574 8.79398 10.25 9.80134 10.25 11.044H11.75ZM12.5 10.294C12.9142 10.294 13.25 10.6298 13.25 11.044H14.75C14.75 9.80134 13.7426 8.79398 12.5 8.79398V10.294ZM13.25 11.044C13.25 11.4582 12.9142 11.794 12.5 11.794V13.294C13.7426 13.294 14.75 12.2866 14.75 11.044H13.25ZM12.5 11.794C12.0858 11.794 11.75 11.4582 11.75 11.044H10.25C10.25 12.2866 11.2574 13.294 12.5 13.294V11.794Z" fill="#000000"/>
</svg>